<svg width="171" height="50" viewBox="0 0 171 50" fill="none" xmlns="http://www.w3.org/2000/svg">
<path d="M66.6651 9.04167C66.6713 8.22219 66.4483 7.41731 66.0213 6.71787C65.5943 6.01842 64.9803 5.45228 64.2485 5.08333C63.5549 4.71086 62.77 4.54253 61.9846 4.59783C61.1993 4.65314 60.4457 4.92983 59.8111 5.39583L49.9989 11.6667V4.16667C49.9989 3.0616 49.5599 2.00179 48.7785 1.22039C47.9971 0.438987 46.9373 0 45.8323 0H8.33314C6.12306 0 4.00349 0.877973 2.44072 2.44078C0.877954 4.00358 0 6.1232 0 8.33333V41.6667C0 43.8768 0.877954 45.9964 2.44072 47.5592C4.00349 49.122 6.12306 50 8.33314 50H45.8323C46.9373 50 47.9971 49.561 48.7785 48.7796C49.5599 47.9982 49.9989 46.9384 49.9989 45.8333V38.3333L59.6653 44.5833C60.3119 45.0785 61.0856 45.3804 61.8967 45.4542C62.7078 45.5279 63.5232 45.3704 64.2485 45C64.9932 44.6249 65.6158 44.0457 66.0437 43.3301C66.4716 42.6144 66.6871 41.7919 66.6651 40.9583V9.04167ZM62.3527 41.1875C62.2277 41.1875 62.1236 41.1875 61.9569 41.0625L45.8323 30.7708V45.8333H8.33314C7.2281 45.8333 6.16832 45.3943 5.38693 44.6129C4.60555 43.8315 4.16657 42.7717 4.16657 41.6667V8.33333C4.16657 7.22826 4.60555 6.16846 5.38693 5.38706C6.16832 4.60565 7.2281 4.16667 8.33314 4.16667H45.8323V19.2292L62.0819 8.8125C62.1212 8.78372 62.1686 8.76821 62.2173 8.76821C62.266 8.76821 62.3135 8.78372 62.3527 8.8125C62.3983 8.83016 62.437 8.86192 62.4633 8.90315C62.4895 8.94438 62.5019 8.99291 62.4986 9.04167V40.9583C62.5019 41.0071 62.4895 41.0556 62.4633 41.0968C62.437 41.1381 62.3983 41.1698 62.3527 41.1875Z" fill="#202020"/>
<path d="M108.44 33.502V37H95.5905V33.502H108.44ZM96.821 11.4062V37H92.4089V11.4062H96.821ZM110.62 27.7012V27.2969C110.62 25.9258 110.819 24.6543 111.217 23.4824C111.616 22.2988 112.19 21.2734 112.94 20.4062C113.702 19.5273 114.628 18.8477 115.717 18.3672C116.819 17.875 118.061 17.6289 119.444 17.6289C120.839 17.6289 122.081 17.875 123.171 18.3672C124.272 18.8477 125.204 19.5273 125.966 20.4062C126.727 21.2734 127.307 22.2988 127.706 23.4824C128.104 24.6543 128.303 25.9258 128.303 27.2969V27.7012C128.303 29.0723 128.104 30.3438 127.706 31.5156C127.307 32.6875 126.727 33.7129 125.966 34.5918C125.204 35.459 124.278 36.1387 123.188 36.6309C122.098 37.1113 120.862 37.3516 119.479 37.3516C118.085 37.3516 116.837 37.1113 115.735 36.6309C114.645 36.1387 113.719 35.459 112.958 34.5918C112.196 33.7129 111.616 32.6875 111.217 31.5156C110.819 30.3438 110.62 29.0723 110.62 27.7012ZM114.856 27.2969V27.7012C114.856 28.5566 114.944 29.3652 115.12 30.127C115.296 30.8887 115.571 31.5566 115.946 32.1309C116.321 32.7051 116.801 33.1562 117.387 33.4844C117.973 33.8125 118.671 33.9766 119.479 33.9766C120.264 33.9766 120.944 33.8125 121.518 33.4844C122.104 33.1562 122.585 32.7051 122.96 32.1309C123.335 31.5566 123.61 30.8887 123.786 30.127C123.973 29.3652 124.067 28.5566 124.067 27.7012V27.2969C124.067 26.4531 123.973 25.6562 123.786 24.9062C123.61 24.1445 123.329 23.4707 122.942 22.8848C122.567 22.2988 122.087 21.8418 121.501 21.5137C120.926 21.1738 120.241 21.0039 119.444 21.0039C118.647 21.0039 117.956 21.1738 117.37 21.5137C116.796 21.8418 116.321 22.2988 115.946 22.8848C115.571 23.4707 115.296 24.1445 115.12 24.9062C114.944 25.6562 114.856 26.4531 114.856 27.2969ZM144.036 17.9805H147.885V36.4727C147.885 38.1836 147.522 39.6367 146.796 40.832C146.069 42.0273 145.055 42.9355 143.755 43.5566C142.454 44.1895 140.948 44.5059 139.237 44.5059C138.51 44.5059 137.702 44.4004 136.811 44.1895C135.932 43.9785 135.077 43.6387 134.245 43.1699C133.424 42.7129 132.739 42.1094 132.188 41.3594L134.174 38.8633C134.854 39.6719 135.604 40.2637 136.424 40.6387C137.245 41.0137 138.106 41.2012 139.008 41.2012C139.981 41.2012 140.807 41.0195 141.487 40.6562C142.178 40.3047 142.712 39.7832 143.087 39.0918C143.462 38.4004 143.649 37.5566 143.649 36.5605V22.2871L144.036 17.9805ZM131.116 27.7012V27.332C131.116 25.8906 131.292 24.5781 131.643 23.3945C131.995 22.1992 132.499 21.1738 133.155 20.3184C133.811 19.4512 134.608 18.7891 135.546 18.332C136.483 17.8633 137.544 17.6289 138.727 17.6289C139.958 17.6289 141.007 17.8516 141.874 18.2969C142.753 18.7422 143.485 19.3809 144.071 20.2129C144.657 21.0332 145.114 22.0176 145.442 23.166C145.782 24.3027 146.034 25.5684 146.198 26.9629V28.1406C146.046 29.5 145.788 30.7422 145.424 31.8672C145.061 32.9922 144.581 33.9648 143.983 34.7852C143.385 35.6055 142.647 36.2383 141.768 36.6836C140.901 37.1289 139.876 37.3516 138.692 37.3516C137.532 37.3516 136.483 37.1113 135.546 36.6309C134.62 36.1504 133.823 35.4766 133.155 34.6094C132.499 33.7422 131.995 32.7227 131.643 31.5508C131.292 30.3672 131.116 29.084 131.116 27.7012ZM135.352 27.332V27.7012C135.352 28.5684 135.434 29.377 135.598 30.127C135.774 30.877 136.038 31.5391 136.389 32.1133C136.753 32.6758 137.21 33.1211 137.76 33.4492C138.323 33.7656 138.985 33.9238 139.747 33.9238C140.743 33.9238 141.557 33.7129 142.19 33.291C142.835 32.8691 143.327 32.3008 143.667 31.5859C144.018 30.8594 144.264 30.0508 144.405 29.1602V25.9785C144.335 25.2871 144.188 24.6426 143.966 24.0449C143.755 23.4473 143.467 22.9258 143.104 22.4805C142.741 22.0234 142.284 21.6719 141.733 21.4258C141.182 21.168 140.532 21.0391 139.782 21.0391C139.02 21.0391 138.358 21.2031 137.796 21.5312C137.233 21.8594 136.77 22.3105 136.407 22.8848C136.055 23.459 135.792 24.127 135.616 24.8887C135.44 25.6504 135.352 26.4648 135.352 27.332ZM151.471 27.7012V27.2969C151.471 25.9258 151.671 24.6543 152.069 23.4824C152.467 22.2988 153.042 21.2734 153.792 20.4062C154.553 19.5273 155.479 18.8477 156.569 18.3672C157.671 17.875 158.913 17.6289 160.296 17.6289C161.69 17.6289 162.932 17.875 164.022 18.3672C165.124 18.8477 166.055 19.5273 166.817 20.4062C167.579 21.2734 168.159 22.2988 168.557 23.4824C168.956 24.6543 169.155 25.9258 169.155 27.2969V27.7012C169.155 29.0723 168.956 30.3438 168.557 31.5156C168.159 32.6875 167.579 33.7129 166.817 34.5918C166.055 35.459 165.13 36.1387 164.04 36.6309C162.95 37.1113 161.714 37.3516 160.331 37.3516C158.936 37.3516 157.688 37.1113 156.587 36.6309C155.497 36.1387 154.571 35.459 153.809 34.5918C153.048 33.7129 152.467 32.6875 152.069 31.5156C151.671 30.3438 151.471 29.0723 151.471 27.7012ZM155.708 27.2969V27.7012C155.708 28.5566 155.796 29.3652 155.971 30.127C156.147 30.8887 156.423 31.5566 156.798 32.1309C157.173 32.7051 157.653 33.1562 158.239 33.4844C158.825 33.8125 159.522 33.9766 160.331 33.9766C161.116 33.9766 161.796 33.8125 162.37 33.4844C162.956 33.1562 163.436 32.7051 163.811 32.1309C164.186 31.5566 164.462 30.8887 164.637 30.127C164.825 29.3652 164.919 28.5566 164.919 27.7012V27.2969C164.919 26.4531 164.825 25.6562 164.637 24.9062C164.462 24.1445 164.18 23.4707 163.794 22.8848C163.419 22.2988 162.938 21.8418 162.352 21.5137C161.778 21.1738 161.092 21.0039 160.296 21.0039C159.499 21.0039 158.807 21.1738 158.221 21.5137C157.647 21.8418 157.173 22.2988 156.798 22.8848C156.423 23.4707 156.147 24.1445 155.971 24.9062C155.796 25.6562 155.708 26.4531 155.708 27.2969Z" fill="#202020"/>
</svg>
