<svg width="132" height="38" viewBox="0 0 132 38" fill="none" xmlns="http://www.w3.org/2000/svg">
<path d="M51.5922 6.87167C51.5969 6.24887 51.4274 5.63716 51.1029 5.10558C50.7784 4.574 50.3117 4.14373 49.7556 3.86333C49.2284 3.58025 48.6319 3.45232 48.035 3.49435C47.4382 3.53639 46.8654 3.74667 46.3832 4.10083L38.9258 8.86667V3.16667C38.9258 2.32681 38.5922 1.52136 37.9984 0.927495C37.4045 0.33363 36.5991 0 35.7592 0H7.25988C5.58022 0 3.96935 0.66726 2.78164 1.85499C1.59394 3.04272 0.926697 4.65363 0.926697 6.33333V31.6667C0.926697 33.3464 1.59394 34.9573 2.78164 36.145C3.96935 37.3327 5.58022 38 7.25988 38H35.7592C36.5991 38 37.4045 37.6664 37.9984 37.0725C38.5922 36.4786 38.9258 35.6732 38.9258 34.8333V29.1333L46.2723 33.8833C46.7638 34.2597 47.3517 34.4891 47.9682 34.5452C48.5846 34.6012 49.2043 34.4815 49.7556 34.2C50.3215 33.9149 50.7947 33.4747 51.1199 32.9309C51.4451 32.387 51.6089 31.7618 51.5922 31.1283V6.87167ZM48.3148 31.3025C48.2198 31.3025 48.1406 31.3025 48.014 31.2075L35.7592 23.3858V34.8333H7.25988C6.42005 34.8333 5.61462 34.4997 5.02076 33.9058C4.42691 33.312 4.09329 32.5065 4.09329 31.6667V6.33333C4.09329 5.49348 4.42691 4.68803 5.02076 4.09416C5.61462 3.5003 6.42005 3.16667 7.25988 3.16667H35.7592V14.6142L48.1089 6.6975C48.1388 6.67563 48.1749 6.66384 48.2119 6.66384C48.2489 6.66384 48.2849 6.67563 48.3148 6.6975C48.3494 6.71092 48.3788 6.73506 48.3988 6.76639C48.4187 6.79773 48.4281 6.83461 48.4256 6.87167V31.1283C48.4281 31.1654 48.4187 31.2023 48.3988 31.2336C48.3788 31.2649 48.3494 31.2891 48.3148 31.3025Z" fill="#989898"/>
<path d="M74.8398 6.848V22.3885H82.1449V26H71.0641V6.848H74.8398ZM95.5139 24.3037C94.1277 25.6899 92.4131 26.383 90.3702 26.383C88.3273 26.383 86.6128 25.6899 85.2265 24.3037C83.8403 22.9174 83.1472 21.2029 83.1472 19.16C83.1472 17.1354 83.8403 15.4299 85.2265 14.0437C86.631 12.6392 88.3456 11.937 90.3702 11.937C92.3949 11.937 94.1094 12.6392 95.5139 14.0437C96.9184 15.4482 97.6206 17.1536 97.6206 19.16C97.6206 21.1846 96.9184 22.8992 95.5139 24.3037ZM87.7163 21.8686C88.4277 22.58 89.3123 22.9357 90.3702 22.9357C91.4281 22.9357 92.3128 22.58 93.0241 21.8686C93.7355 21.1573 94.0912 20.2544 94.0912 19.16C94.0912 18.0656 93.7355 17.1627 93.0241 16.4514C92.3128 15.74 91.4281 15.3843 90.3702 15.3843C89.3123 15.3843 88.4277 15.74 87.7163 16.4514C87.0232 17.181 86.6766 18.0838 86.6766 19.16C86.6766 20.2362 87.0232 21.139 87.7163 21.8686ZM110.582 14.0163V12.32H114.03V25.3434C114.03 27.441 113.328 29.0552 111.923 30.1861C110.537 31.2987 108.859 31.855 106.889 31.855C103.788 31.855 101.627 30.7424 100.405 28.5171L103.414 26.7934C104.089 28.0702 105.284 28.7086 106.998 28.7086C108.111 28.7086 108.986 28.4168 109.625 27.8331C110.263 27.2494 110.582 26.4195 110.582 25.3434V23.8659C109.543 25.2522 108.084 25.9453 106.205 25.9453C104.271 25.9453 102.648 25.2704 101.335 23.9206C100.04 22.5344 99.3922 20.8746 99.3922 18.9411C99.3922 17.0077 100.049 15.357 101.362 13.989C102.675 12.621 104.29 11.937 106.205 11.937C108.084 11.937 109.543 12.6301 110.582 14.0163ZM109.488 21.6498C110.218 20.9384 110.582 20.0355 110.582 18.9411C110.582 17.8467 110.218 16.9621 109.488 16.2872C108.777 15.5758 107.865 15.2202 106.752 15.2202C105.658 15.2202 104.737 15.5758 103.989 16.2872C103.277 16.9621 102.922 17.8467 102.922 18.9411C102.922 20.0355 103.277 20.9384 103.989 21.6498C104.718 22.3429 105.639 22.6894 106.752 22.6894C107.865 22.6894 108.777 22.3429 109.488 21.6498ZM128.886 24.3037C127.499 25.6899 125.785 26.383 123.742 26.383C121.699 26.383 119.985 25.6899 118.598 24.3037C117.212 22.9174 116.519 21.2029 116.519 19.16C116.519 17.1354 117.212 15.4299 118.598 14.0437C120.003 12.6392 121.717 11.937 123.742 11.937C125.767 11.937 127.481 12.6392 128.886 14.0437C130.29 15.4482 130.992 17.1536 130.992 19.16C130.992 21.1846 130.29 22.8992 128.886 24.3037ZM121.088 21.8686C121.799 22.58 122.684 22.9357 123.742 22.9357C124.8 22.9357 125.685 22.58 126.396 21.8686C127.107 21.1573 127.463 20.2544 127.463 19.16C127.463 18.0656 127.107 17.1627 126.396 16.4514C125.685 15.74 124.8 15.3843 123.742 15.3843C122.684 15.3843 121.799 15.74 121.088 16.4514C120.395 17.181 120.048 18.0838 120.048 19.16C120.048 20.2362 120.395 21.139 121.088 21.8686Z" fill="#989898"/>
</svg>
