<svg width="21" height="18" viewBox="0 0 21 18" fill="none" xmlns="http://www.w3.org/2000/svg">
<path d="M0.75 4.5C0.335786 4.5 0 4.83579 0 5.25C0 5.66421 0.335786 6 0.75 6V4.5ZM20.25 6C20.6642 6 21 5.66421 21 5.25C21 4.83579 20.6642 4.5 20.25 4.5V6ZM0.75 5.25C0.335786 5.25 0 5.58579 0 6C0 6.41421 0.335786 6.75 0.75 6.75V5.25ZM20.25 6.75C20.6642 6.75 21 6.41421 21 6C21 5.58579 20.6642 5.25 20.25 5.25V6.75ZM3.75 10.5C3.33579 10.5 3 10.8358 3 11.25C3 11.6642 3.33579 12 3.75 12V10.5ZM9.75 12C10.1642 12 10.5 11.6642 10.5 11.25C10.5 10.8358 10.1642 10.5 9.75 10.5V12ZM3.75 12.75C3.33579 12.75 3 13.0858 3 13.5C3 13.9142 3.33579 14.25 3.75 14.25V12.75ZM6.75 14.25C7.16421 14.25 7.5 13.9142 7.5 13.5C7.5 13.0858 7.16421 12.75 6.75 12.75V14.25ZM3 2.25H18V0.75H3V2.25ZM19.5 3.75V14.25H21V3.75H19.5ZM18 15.75H3V17.25H18V15.75ZM1.5 14.25V3.75H0V14.25H1.5ZM3 15.75C2.17157 15.75 1.5 15.0784 1.5 14.25H0C0 15.9069 1.34315 17.25 3 17.25V15.75ZM19.5 14.25C19.5 15.0784 18.8284 15.75 18 15.75V17.25C19.6569 17.25 21 15.9069 21 14.25H19.5ZM18 2.25C18.8284 2.25 19.5 2.92157 19.5 3.75H21C21 2.09315 19.6569 0.75 18 0.75V2.25ZM3 0.75C1.34315 0.75 0 2.09315 0 3.75H1.5C1.5 2.92157 2.17157 2.25 3 2.25V0.75ZM0.75 6H20.25V4.5H0.75V6ZM0.75 6.75H20.25V5.25H0.75V6.75ZM3.75 12H9.75V10.5H3.75V12ZM3.75 14.25H6.75V12.75H3.75V14.25Z" fill="#202020"/>
</svg>
