<svg width="12" height="14" viewBox="0 0 12 14" fill="none" xmlns="http://www.w3.org/2000/svg">
<path d="M10.8221 2.16058C10.0077 0.767308 8.89708 0 7.69227 0H4.4615C3.25669 0 2.14612 0.767308 1.33169 2.16058C0.51727 3.55385 0.153809 5.18269 0.153809 7C0.153809 8.81731 0.571116 10.5404 1.33169 11.8394C2.09227 13.1385 3.25669 14 4.4615 14H7.69227C8.89708 14 10.0077 13.2327 10.8221 11.8394C11.6365 10.4462 12 8.81731 12 7C12 5.18269 11.5827 3.45962 10.8221 2.16058ZM10.9096 6.46154H8.75573C8.70189 5.30385 8.47977 4.19327 8.10285 3.23077H10.1625C10.573 4.13269 10.849 5.25 10.9096 6.46154ZM9.52304 2.15385H7.59131C7.3634 1.76567 7.09245 1.40441 6.78362 1.07692H7.69227C8.36535 1.07692 8.99804 1.48077 9.52304 2.15385ZM1.23073 7C1.23073 3.78942 2.7115 1.07692 4.4615 1.07692C6.2115 1.07692 7.69227 3.78942 7.69227 7C7.69227 10.2106 6.2115 12.9231 4.4615 12.9231C2.7115 12.9231 1.23073 10.2106 1.23073 7ZM7.69227 12.9231H6.78362C7.09245 12.5956 7.3634 12.2343 7.59131 11.8462H9.52304C8.99804 12.5192 8.36535 12.9231 7.69227 12.9231ZM10.1625 10.7692H8.10285C8.47977 9.80673 8.70189 8.69615 8.75573 7.53846H10.9096C10.849 8.75 10.573 9.86731 10.1625 10.7692Z" fill="#202020"/>
</svg>
