<svg width="21" height="19" viewBox="0 0 21 19" fill="none" xmlns="http://www.w3.org/2000/svg">
<path d="M16.4999 15.7191C16.7474 15.7396 16.9978 15.75 17.2506 15.75C18.2989 15.75 19.3054 15.5708 20.241 15.2413C20.2473 15.1617 20.2506 15.0812 20.2506 15C20.2506 13.3431 18.9074 12 17.2506 12C16.623 12 16.0403 12.1927 15.5587 12.5222M16.4999 15.7191C16.5 15.7294 16.5 15.7397 16.5 15.75C16.5 15.975 16.4876 16.1971 16.4635 16.4156C14.7067 17.4237 12.6707 18 10.5 18C8.32933 18 6.29327 17.4237 4.53651 16.4156C4.51238 16.1971 4.5 15.975 4.5 15.75C4.5 15.7397 4.50003 15.7295 4.50008 15.7192M16.4999 15.7191C16.494 14.5426 16.1494 13.4461 15.5587 12.5222M15.5587 12.5222C14.4928 10.8552 12.6255 9.75 10.5 9.75C8.37479 9.75 6.50765 10.8549 5.44169 12.5216M5.44169 12.5216C4.96023 12.1925 4.37796 12 3.75073 12C2.09388 12 0.750732 13.3431 0.750732 15C0.750732 15.0812 0.753959 15.1617 0.760292 15.2413C1.69593 15.5708 2.7024 15.75 3.75073 15.75C4.00307 15.75 4.25299 15.7396 4.50008 15.7192M5.44169 12.5216C4.85071 13.4457 4.50598 14.5424 4.50008 15.7192M13.5 3.75C13.5 5.40685 12.1569 6.75 10.5 6.75C8.84315 6.75 7.5 5.40685 7.5 3.75C7.5 2.09315 8.84315 0.75 10.5 0.75C12.1569 0.75 13.5 2.09315 13.5 3.75ZM19.5 6.75C19.5 7.99264 18.4926 9 17.25 9C16.0074 9 15 7.99264 15 6.75C15 5.50736 16.0074 4.5 17.25 4.5C18.4926 4.5 19.5 5.50736 19.5 6.75ZM6 6.75C6 7.99264 4.99264 9 3.75 9C2.50736 9 1.5 7.99264 1.5 6.75C1.5 5.50736 2.50736 4.5 3.75 4.5C4.99264 4.5 6 5.50736 6 6.75Z" stroke="white" stroke-width="1.5" stroke-linecap="round" stroke-linejoin="round"/>
</svg>
