<svg width="21" height="18" viewBox="0 0 21 18" fill="none" xmlns="http://www.w3.org/2000/svg">
<path d="M4.5 3.87803L4.74993 4.58516L4.5 3.87803ZM18 6.87803L17.7501 7.58516L18 6.87803ZM3 6.87803L3.24993 7.58516L3 6.87803ZM3.75 7.5H17.25V6H3.75V7.5ZM18.75 9V15H20.25V9H18.75ZM17.25 16.5H3.75V18H17.25V16.5ZM2.25 15V9H0.75V15H2.25ZM3.75 16.5C2.92157 16.5 2.25 15.8284 2.25 15H0.75C0.75 16.6569 2.09315 18 3.75 18V16.5ZM18.75 15C18.75 15.8284 18.0784 16.5 17.25 16.5V18C18.9069 18 20.25 16.6569 20.25 15H18.75ZM5.25 4.5H15.75V3H5.25V4.5ZM6.75 1.5H14.25V0H6.75V1.5ZM14.25 1.5C15.0784 1.5 15.75 2.17157 15.75 3H17.25C17.25 1.34315 15.9069 0 14.25 0V1.5ZM6.75 0C5.09315 0 3.75 1.34315 3.75 3H5.25C5.25 2.17157 5.92157 1.5 6.75 1.5V0ZM3.75 3V3.87803H5.25V3H3.75ZM5.25 3C4.90071 3 4.56381 3.06001 4.25007 3.1709L4.74993 4.58516C4.90536 4.53022 5.07334 4.5 5.25 4.5V3ZM4.25007 3.1709C3.08588 3.58238 2.25 4.69261 2.25 6H3.75C3.75 5.34806 4.16633 4.79143 4.74993 4.58516L4.25007 3.1709ZM15.75 3V3.87803H17.25V3H15.75ZM15.75 4.5C15.9267 4.5 16.0946 4.53022 16.2501 4.58516L16.7499 3.1709C16.4362 3.06001 16.0993 3 15.75 3V4.5ZM16.2501 4.58516C16.8337 4.79143 17.25 5.34806 17.25 6H18.75C18.75 4.69261 17.9141 3.58238 16.7499 3.1709L16.2501 4.58516ZM17.25 6V6.87803H18.75V6H17.25ZM17.25 7.5C17.4267 7.5 17.5946 7.53022 17.7501 7.58516L18.2499 6.1709C17.9362 6.06001 17.5993 6 17.25 6V7.5ZM17.7501 7.58516C18.3337 7.79143 18.75 8.34806 18.75 9H20.25C20.25 7.69261 19.4141 6.58238 18.2499 6.1709L17.7501 7.58516ZM2.25 6V6.87803H3.75V6H2.25ZM3.75 6C3.40071 6 3.06381 6.06001 2.75007 6.1709L3.24993 7.58516C3.40536 7.53022 3.57334 7.5 3.75 7.5V6ZM2.75007 6.1709C1.58588 6.58238 0.75 7.69261 0.75 9H2.25C2.25 8.34806 2.66633 7.79143 3.24993 7.58516L2.75007 6.1709Z" fill="#202020"/>
</svg>
