<svg width="37" height="36" viewBox="0 0 37 36" fill="none" xmlns="http://www.w3.org/2000/svg">
<path d="M13.0913 14.625C13.0913 14.9357 12.8395 15.1875 12.5288 15.1875C12.2181 15.1875 11.9663 14.9357 11.9663 14.625C11.9663 14.3143 12.2181 14.0625 12.5288 14.0625C12.8395 14.0625 13.0913 14.3143 13.0913 14.625ZM13.0913 14.625H12.5288M18.7163 14.625C18.7163 14.9357 18.4645 15.1875 18.1538 15.1875C17.8431 15.1875 17.5913 14.9357 17.5913 14.625C17.5913 14.3143 17.8431 14.0625 18.1538 14.0625C18.4645 14.0625 18.7163 14.3143 18.7163 14.625ZM18.7163 14.625H18.1538M24.3413 14.625C24.3413 14.9357 24.0895 15.1875 23.7788 15.1875C23.4681 15.1875 23.2163 14.9357 23.2163 14.625C23.2163 14.3143 23.4681 14.0625 23.7788 14.0625C24.0895 14.0625 24.3413 14.3143 24.3413 14.625ZM24.3413 14.625H23.7788M3.52881 19.139C3.52881 21.5406 5.21393 23.6311 7.59 23.9804C9.21916 24.22 10.8661 24.405 12.5288 24.5335V31.5L18.804 25.2248C19.1141 24.9147 19.5328 24.7384 19.9712 24.7275C22.9346 24.6541 25.8535 24.4017 28.7175 23.9806C31.0936 23.6313 32.7788 21.5408 32.7788 19.1392V10.1108C32.7788 7.70919 31.0937 5.61874 28.7175 5.2694C25.2699 4.76252 21.7427 4.5 18.1542 4.5C14.5654 4.5 11.038 4.76257 7.59001 5.26954C5.21393 5.6189 3.52881 7.70934 3.52881 10.111V19.139Z" stroke="#989898" stroke-width="2" stroke-linecap="round" stroke-linejoin="round"/>
</svg>
