<svg width="10" height="17" viewBox="0 0 10 17" fill="none" xmlns="http://www.w3.org/2000/svg">
<path d="M1.78033 0.46967C1.48744 0.176776 1.01256 0.176776 0.71967 0.46967C0.426777 0.762563 0.426777 1.23744 0.71967 1.53033L1.78033 0.46967ZM8.75 8.5L9.28033 9.03033C9.57322 8.73744 9.57322 8.26256 9.28033 7.96967L8.75 8.5ZM0.71967 15.4697C0.426776 15.7626 0.426776 16.2374 0.71967 16.5303C1.01256 16.8232 1.48744 16.8232 1.78033 16.5303L0.71967 15.4697ZM0.71967 1.53033L8.21967 9.03033L9.28033 7.96967L1.78033 0.46967L0.71967 1.53033ZM8.21967 7.96967L0.71967 15.4697L1.78033 16.5303L9.28033 9.03033L8.21967 7.96967Z" fill="#7046E8"/>
</svg>
