<svg width="37" height="36" viewBox="0 0 37 36" fill="none" xmlns="http://www.w3.org/2000/svg">
<path d="M22.4391 25.6226C25.2809 25.2855 28.0213 24.6173 30.6205 23.6578C28.4653 21.2655 27.1535 18.0985 27.1535 14.625V13.5738C27.1537 13.5492 27.1538 13.5246 27.1538 13.5C27.1538 8.52944 23.1244 4.5 18.1538 4.5C13.1832 4.5 9.15381 8.52944 9.15381 13.5L9.15351 14.625C9.15351 18.0985 7.84172 21.2655 5.68652 23.6578C8.28591 24.6174 11.0265 25.2856 13.8685 25.6226M22.4391 25.6226C21.0338 25.7893 19.6037 25.875 18.1535 25.875C16.7036 25.875 15.2736 25.7893 13.8685 25.6226M22.4391 25.6226C22.5785 26.0567 22.6538 26.5196 22.6538 27C22.6538 29.4853 20.6391 31.5 18.1538 31.5C15.6685 31.5 13.6538 29.4853 13.6538 27C13.6538 26.5196 13.7291 26.0567 13.8685 25.6226" stroke="#989898" stroke-width="2" stroke-linecap="round" stroke-linejoin="round"/>
</svg>
