<svg width="10" height="17" viewBox="0 0 10 17" fill="none" xmlns="http://www.w3.org/2000/svg">
<path d="M8.21967 16.5303C8.51256 16.8232 8.98744 16.8232 9.28033 16.5303C9.57322 16.2374 9.57322 15.7626 9.28033 15.4697L8.21967 16.5303ZM1.25 8.5L0.71967 7.96967C0.426777 8.26256 0.426777 8.73744 0.71967 9.03033L1.25 8.5ZM9.28033 1.53033C9.57322 1.23744 9.57322 0.762563 9.28033 0.46967C8.98744 0.176777 8.51256 0.176777 8.21967 0.46967L9.28033 1.53033ZM9.28033 15.4697L1.78033 7.96967L0.71967 9.03033L8.21967 16.5303L9.28033 15.4697ZM1.78033 9.03033L9.28033 1.53033L8.21967 0.46967L0.71967 7.96967L1.78033 9.03033Z" fill="#DBBEF7"/>
</svg>
