<svg width="19" height="20" viewBox="0 0 19 20" fill="none" xmlns="http://www.w3.org/2000/svg">
<path d="M7.09377 1.94017C7.18418 1.39771 7.65352 1.00012 8.20346 1.00012H10.7974C11.3474 1.00012 11.8167 1.39771 11.9071 1.94017L12.1206 3.22122C12.183 3.59527 12.4329 3.90683 12.7647 4.09048C12.8389 4.13154 12.9122 4.17396 12.9846 4.21769C13.3097 4.41396 13.705 4.47499 14.0606 4.34178L15.2774 3.8859C15.7924 3.69297 16.3714 3.90063 16.6464 4.3769L17.9434 6.62333C18.2183 7.0996 18.1087 7.70485 17.6841 8.05438L16.6798 8.8812C16.3873 9.122 16.2423 9.49384 16.2493 9.87265C16.2501 9.91505 16.2504 9.95754 16.2504 10.0001C16.2504 10.0427 16.2501 10.0852 16.2493 10.1276C16.2423 10.5064 16.3873 10.8782 16.6798 11.119L17.6841 11.9458C18.1087 12.2954 18.2183 12.9006 17.9434 13.3769L16.6464 15.6233C16.3714 16.0996 15.7924 16.3073 15.2774 16.1143L14.0606 15.6585C13.705 15.5252 13.3097 15.5863 12.9847 15.7825C12.9122 15.8263 12.8389 15.8687 12.7647 15.9098C12.4329 16.0934 12.183 16.405 12.1206 16.779L11.9071 18.0601C11.8167 18.6025 11.3474 19.0001 10.7974 19.0001H8.20346C7.65352 19.0001 7.18418 18.6025 7.09377 18.0601L6.88026 16.779C6.81792 16.405 6.56795 16.0934 6.23618 15.9098C6.16201 15.8687 6.08869 15.8263 6.01626 15.7826C5.69122 15.5863 5.29589 15.5253 4.94033 15.6585L3.72346 16.1143C3.20847 16.3073 2.62948 16.0996 2.3545 15.6233L1.05752 13.3769C0.78255 12.9006 0.892204 12.2954 1.31678 11.9459L2.32114 11.119C2.61364 10.8782 2.75864 10.5064 2.75163 10.1276C2.75084 10.0852 2.75045 10.0427 2.75045 10.0001C2.75045 9.95754 2.75084 9.91506 2.75163 9.87266C2.75864 9.49386 2.61364 9.12201 2.32114 8.88121L1.31678 8.0544C0.892203 7.70487 0.78255 7.09961 1.05752 6.62335L2.3545 4.37691C2.62948 3.90065 3.20847 3.69298 3.72346 3.88591L4.94031 4.34179C5.29588 4.475 5.69121 4.41397 6.01624 4.2177C6.08868 4.17396 6.162 4.13154 6.23618 4.09048C6.56795 3.90683 6.81792 3.59527 6.88026 3.22122L7.09377 1.94017Z" stroke="#202020" stroke-width="1.5" stroke-linecap="round" stroke-linejoin="round"/>
<path d="M12.5002 10C12.5002 11.6569 11.1571 13 9.50022 13C7.84336 13 6.50022 11.6569 6.50022 10C6.50022 8.34319 7.84336 7.00004 9.50022 7.00004C11.1571 7.00004 12.5002 8.34319 12.5002 10Z" stroke="#202020" stroke-width="1.5" stroke-linecap="round" stroke-linejoin="round"/>
</svg>
