<svg width="29" height="29" viewBox="0 0 29 29" fill="none" xmlns="http://www.w3.org/2000/svg">
<path d="M23.5019 24.182C21.5048 21.5463 18.3406 19.8438 14.7788 19.8438C11.217 19.8438 8.05282 21.5463 6.05573 24.182M23.5019 24.182C26.2027 21.778 27.9038 18.2752 27.9038 14.375C27.9038 7.12626 22.0275 1.25 14.7788 1.25C7.53007 1.25 1.65381 7.12626 1.65381 14.375C1.65381 18.2752 3.35496 21.778 6.05573 24.182M23.5019 24.182C21.1831 26.246 18.1274 27.5 14.7788 27.5C11.4302 27.5 8.37455 26.246 6.05573 24.182M19.1538 11.0938C19.1538 13.51 17.1951 15.4688 14.7788 15.4688C12.3626 15.4688 10.4038 13.51 10.4038 11.0938C10.4038 8.6775 12.3626 6.71875 14.7788 6.71875C17.1951 6.71875 19.1538 8.6775 19.1538 11.0938Z" stroke="#989898" stroke-width="1.75" stroke-linecap="round" stroke-linejoin="round"/>
</svg>
